<mxfile host="app.diagrams.net" agent="Mozilla/5.0 (Windows NT 10.0; Win64; x64) AppleWebKit/537.36 (KHTML, like Gecko) Chrome/129.0.0.0 Safari/537.36" version="24.7.16">
  <diagram name="Page-1" id="uvwHDNZlG5KgGt5MM_ni">
    <mxGraphModel dx="2261" dy="738" grid="1" gridSize="10" guides="1" tooltips="1" connect="1" arrows="1" fold="1" page="1" pageScale="1" pageWidth="827" pageHeight="1169" math="0" shadow="0">
      <root>
        <mxCell id="0" />
        <mxCell id="1" parent="0" />
        <mxCell id="cF4Il0tcKfwgS1lK2epE-57" value="" style="group" vertex="1" connectable="0" parent="1">
          <mxGeometry x="-630" y="80" width="1240" height="1460" as="geometry" />
        </mxCell>
        <mxCell id="psFaeoeCnoXFWx_0zrmn-30" value="AWS Cloud" style="sketch=0;outlineConnect=0;gradientColor=none;html=1;whiteSpace=wrap;fontSize=12;fontStyle=0;shape=mxgraph.aws4.group;grIcon=mxgraph.aws4.group_aws_cloud;strokeColor=#AAB7B8;fillColor=none;verticalAlign=top;align=left;spacingLeft=30;fontColor=#AAB7B8;dashed=0;" parent="cF4Il0tcKfwgS1lK2epE-57" vertex="1">
          <mxGeometry y="210" width="1240" height="1250" as="geometry" />
        </mxCell>
        <mxCell id="cF4Il0tcKfwgS1lK2epE-1" value="Internet" style="outlineConnect=0;dashed=0;verticalLabelPosition=bottom;verticalAlign=top;align=center;html=1;shape=mxgraph.aws3.internet_2;fillColor=#D2D3D3;gradientColor=none;" vertex="1" parent="cF4Il0tcKfwgS1lK2epE-57">
          <mxGeometry x="602" width="79.5" height="54" as="geometry" />
        </mxCell>
        <mxCell id="cF4Il0tcKfwgS1lK2epE-38" style="edgeStyle=orthogonalEdgeStyle;rounded=0;orthogonalLoop=1;jettySize=auto;html=1;" edge="1" parent="cF4Il0tcKfwgS1lK2epE-57" source="cF4Il0tcKfwgS1lK2epE-2" target="cF4Il0tcKfwgS1lK2epE-3">
          <mxGeometry relative="1" as="geometry" />
        </mxCell>
        <mxCell id="cF4Il0tcKfwgS1lK2epE-2" value="Internet Gateway" style="sketch=0;outlineConnect=0;fontColor=#232F3E;gradientColor=none;fillColor=#8C4FFF;strokeColor=none;dashed=0;verticalLabelPosition=bottom;verticalAlign=top;align=center;html=1;fontSize=12;fontStyle=0;aspect=fixed;pointerEvents=1;shape=mxgraph.aws4.internet_gateway;" vertex="1" parent="cF4Il0tcKfwgS1lK2epE-57">
          <mxGeometry x="610" y="170" width="78" height="78" as="geometry" />
        </mxCell>
        <mxCell id="cF4Il0tcKfwgS1lK2epE-3" value="Route Table" style="sketch=0;outlineConnect=0;fontColor=#232F3E;gradientColor=none;fillColor=#8C4FFF;strokeColor=none;dashed=0;verticalLabelPosition=bottom;verticalAlign=top;align=center;html=1;fontSize=12;fontStyle=0;aspect=fixed;pointerEvents=1;shape=mxgraph.aws4.route_table;" vertex="1" parent="cF4Il0tcKfwgS1lK2epE-57">
          <mxGeometry x="610" y="340" width="78" height="76" as="geometry" />
        </mxCell>
        <mxCell id="cF4Il0tcKfwgS1lK2epE-4" value="VPC" style="sketch=0;outlineConnect=0;gradientColor=none;html=1;whiteSpace=wrap;fontSize=12;fontStyle=0;shape=mxgraph.aws4.group;grIcon=mxgraph.aws4.group_vpc;strokeColor=#879196;fillColor=none;verticalAlign=top;align=left;spacingLeft=30;fontColor=#879196;dashed=0;" vertex="1" parent="cF4Il0tcKfwgS1lK2epE-57">
          <mxGeometry x="130" y="490" width="1010" height="760" as="geometry" />
        </mxCell>
        <mxCell id="cF4Il0tcKfwgS1lK2epE-5" value="Availability Zone 1" style="fillColor=none;strokeColor=#147EBA;dashed=1;verticalAlign=top;fontStyle=0;fontColor=#147EBA;whiteSpace=wrap;html=1;" vertex="1" parent="cF4Il0tcKfwgS1lK2epE-57">
          <mxGeometry x="210" y="460" width="290" height="830" as="geometry" />
        </mxCell>
        <mxCell id="cF4Il0tcKfwgS1lK2epE-6" value="Availability Zone 2" style="fillColor=none;strokeColor=#147EBA;dashed=1;verticalAlign=top;fontStyle=0;fontColor=#147EBA;whiteSpace=wrap;html=1;" vertex="1" parent="cF4Il0tcKfwgS1lK2epE-57">
          <mxGeometry x="790" y="455" width="290" height="830" as="geometry" />
        </mxCell>
        <mxCell id="cF4Il0tcKfwgS1lK2epE-7" value="Public subnet 1" style="points=[[0,0],[0.25,0],[0.5,0],[0.75,0],[1,0],[1,0.25],[1,0.5],[1,0.75],[1,1],[0.75,1],[0.5,1],[0.25,1],[0,1],[0,0.75],[0,0.5],[0,0.25]];outlineConnect=0;gradientColor=none;html=1;whiteSpace=wrap;fontSize=12;fontStyle=0;container=1;pointerEvents=0;collapsible=0;recursiveResize=0;shape=mxgraph.aws4.group;grIcon=mxgraph.aws4.group_security_group;grStroke=0;strokeColor=#7AA116;fillColor=#F2F6E8;verticalAlign=top;align=left;spacingLeft=30;fontColor=#248814;dashed=0;" vertex="1" parent="cF4Il0tcKfwgS1lK2epE-57">
          <mxGeometry x="280" y="570" width="190" height="170" as="geometry" />
        </mxCell>
        <mxCell id="cF4Il0tcKfwgS1lK2epE-11" value="Private subnet 2" style="points=[[0,0],[0.25,0],[0.5,0],[0.75,0],[1,0],[1,0.25],[1,0.5],[1,0.75],[1,1],[0.75,1],[0.5,1],[0.25,1],[0,1],[0,0.75],[0,0.5],[0,0.25]];outlineConnect=0;gradientColor=none;html=1;whiteSpace=wrap;fontSize=12;fontStyle=0;container=1;pointerEvents=0;collapsible=0;recursiveResize=0;shape=mxgraph.aws4.group;grIcon=mxgraph.aws4.group_security_group;grStroke=0;strokeColor=#00A4A6;fillColor=#E6F6F7;verticalAlign=top;align=left;spacingLeft=30;fontColor=#147EBA;dashed=0;" vertex="1" parent="cF4Il0tcKfwgS1lK2epE-57">
          <mxGeometry x="830" y="1030" width="190" height="190" as="geometry" />
        </mxCell>
        <mxCell id="cF4Il0tcKfwgS1lK2epE-12" value="Private subnet 1" style="points=[[0,0],[0.25,0],[0.5,0],[0.75,0],[1,0],[1,0.25],[1,0.5],[1,0.75],[1,1],[0.75,1],[0.5,1],[0.25,1],[0,1],[0,0.75],[0,0.5],[0,0.25]];outlineConnect=0;gradientColor=none;html=1;whiteSpace=wrap;fontSize=12;fontStyle=0;container=1;pointerEvents=0;collapsible=0;recursiveResize=0;shape=mxgraph.aws4.group;grIcon=mxgraph.aws4.group_security_group;grStroke=0;strokeColor=#00A4A6;fillColor=#E6F6F7;verticalAlign=top;align=left;spacingLeft=30;fontColor=#147EBA;dashed=0;" vertex="1" parent="cF4Il0tcKfwgS1lK2epE-57">
          <mxGeometry x="250" y="1040" width="190" height="180" as="geometry" />
        </mxCell>
        <mxCell id="cF4Il0tcKfwgS1lK2epE-20" value="EC 2" style="sketch=0;points=[[0,0,0],[0.25,0,0],[0.5,0,0],[0.75,0,0],[1,0,0],[0,1,0],[0.25,1,0],[0.5,1,0],[0.75,1,0],[1,1,0],[0,0.25,0],[0,0.5,0],[0,0.75,0],[1,0.25,0],[1,0.5,0],[1,0.75,0]];outlineConnect=0;fontColor=#232F3E;fillColor=#ED7100;strokeColor=#ffffff;dashed=0;verticalLabelPosition=bottom;verticalAlign=top;align=center;html=1;fontSize=12;fontStyle=0;aspect=fixed;shape=mxgraph.aws4.resourceIcon;resIcon=mxgraph.aws4.ec2;" vertex="1" parent="cF4Il0tcKfwgS1lK2epE-12">
          <mxGeometry x="56" y="46" width="78" height="78" as="geometry" />
        </mxCell>
        <mxCell id="cF4Il0tcKfwgS1lK2epE-43" style="edgeStyle=orthogonalEdgeStyle;rounded=0;orthogonalLoop=1;jettySize=auto;html=1;" edge="1" parent="cF4Il0tcKfwgS1lK2epE-57" source="cF4Il0tcKfwgS1lK2epE-13" target="cF4Il0tcKfwgS1lK2epE-17">
          <mxGeometry relative="1" as="geometry" />
        </mxCell>
        <mxCell id="cF4Il0tcKfwgS1lK2epE-13" value="VPC NAT Gateway" style="outlineConnect=0;dashed=0;verticalLabelPosition=bottom;verticalAlign=top;align=center;html=1;shape=mxgraph.aws3.vpc_nat_gateway;fillColor=#F58534;gradientColor=none;" vertex="1" parent="cF4Il0tcKfwgS1lK2epE-57">
          <mxGeometry x="340.5" y="610" width="69.5" height="72" as="geometry" />
        </mxCell>
        <mxCell id="cF4Il0tcKfwgS1lK2epE-15" value="Public subnet 2" style="points=[[0,0],[0.25,0],[0.5,0],[0.75,0],[1,0],[1,0.25],[1,0.5],[1,0.75],[1,1],[0.75,1],[0.5,1],[0.25,1],[0,1],[0,0.75],[0,0.5],[0,0.25]];outlineConnect=0;gradientColor=none;html=1;whiteSpace=wrap;fontSize=12;fontStyle=0;container=1;pointerEvents=0;collapsible=0;recursiveResize=0;shape=mxgraph.aws4.group;grIcon=mxgraph.aws4.group_security_group;grStroke=0;strokeColor=#7AA116;fillColor=#F2F6E8;verticalAlign=top;align=left;spacingLeft=30;fontColor=#248814;dashed=0;" vertex="1" parent="cF4Il0tcKfwgS1lK2epE-57">
          <mxGeometry x="840" y="570" width="190" height="170" as="geometry" />
        </mxCell>
        <mxCell id="cF4Il0tcKfwgS1lK2epE-44" style="edgeStyle=orthogonalEdgeStyle;rounded=0;orthogonalLoop=1;jettySize=auto;html=1;" edge="1" parent="cF4Il0tcKfwgS1lK2epE-57" source="cF4Il0tcKfwgS1lK2epE-14" target="cF4Il0tcKfwgS1lK2epE-18">
          <mxGeometry relative="1" as="geometry" />
        </mxCell>
        <mxCell id="cF4Il0tcKfwgS1lK2epE-14" value="VPC NAT Gateway" style="outlineConnect=0;dashed=0;verticalLabelPosition=bottom;verticalAlign=top;align=center;html=1;shape=mxgraph.aws3.vpc_nat_gateway;fillColor=#F58534;gradientColor=none;" vertex="1" parent="cF4Il0tcKfwgS1lK2epE-57">
          <mxGeometry x="900.5" y="610" width="69.5" height="72" as="geometry" />
        </mxCell>
        <mxCell id="cF4Il0tcKfwgS1lK2epE-17" value="" style="sketch=0;outlineConnect=0;fontColor=#232F3E;gradientColor=none;fillColor=#8C4FFF;strokeColor=none;dashed=0;verticalLabelPosition=bottom;verticalAlign=top;align=center;html=1;fontSize=12;fontStyle=0;aspect=fixed;pointerEvents=1;shape=mxgraph.aws4.route_table;" vertex="1" parent="cF4Il0tcKfwgS1lK2epE-57">
          <mxGeometry x="532" y="740" width="78" height="76" as="geometry" />
        </mxCell>
        <mxCell id="cF4Il0tcKfwgS1lK2epE-18" value="" style="sketch=0;outlineConnect=0;fontColor=#232F3E;gradientColor=none;fillColor=#8C4FFF;strokeColor=none;dashed=0;verticalLabelPosition=bottom;verticalAlign=top;align=center;html=1;fontSize=12;fontStyle=0;aspect=fixed;pointerEvents=1;shape=mxgraph.aws4.route_table;" vertex="1" parent="cF4Il0tcKfwgS1lK2epE-57">
          <mxGeometry x="688" y="740" width="78" height="76" as="geometry" />
        </mxCell>
        <mxCell id="cF4Il0tcKfwgS1lK2epE-19" value="" style="sketch=0;outlineConnect=0;fontColor=#232F3E;gradientColor=none;fillColor=#8C4FFF;strokeColor=none;dashed=0;verticalLabelPosition=bottom;verticalAlign=top;align=center;html=1;fontSize=12;fontStyle=0;aspect=fixed;pointerEvents=1;shape=mxgraph.aws4.application_load_balancer;" vertex="1" parent="cF4Il0tcKfwgS1lK2epE-57">
          <mxGeometry x="602" y="882" width="78" height="78" as="geometry" />
        </mxCell>
        <mxCell id="cF4Il0tcKfwgS1lK2epE-21" value="EC 2" style="sketch=0;points=[[0,0,0],[0.25,0,0],[0.5,0,0],[0.75,0,0],[1,0,0],[0,1,0],[0.25,1,0],[0.5,1,0],[0.75,1,0],[1,1,0],[0,0.25,0],[0,0.5,0],[0,0.75,0],[1,0.25,0],[1,0.5,0],[1,0.75,0]];outlineConnect=0;fontColor=#232F3E;fillColor=#ED7100;strokeColor=#ffffff;dashed=0;verticalLabelPosition=bottom;verticalAlign=top;align=center;html=1;fontSize=12;fontStyle=0;aspect=fixed;shape=mxgraph.aws4.resourceIcon;resIcon=mxgraph.aws4.ec2;" vertex="1" parent="cF4Il0tcKfwgS1lK2epE-57">
          <mxGeometry x="886" y="1086" width="78" height="78" as="geometry" />
        </mxCell>
        <mxCell id="cF4Il0tcKfwgS1lK2epE-23" value="Security Group" style="rounded=1;arcSize=10;dashed=1;strokeColor=#ff0000;fillColor=none;gradientColor=none;dashPattern=8 4;strokeWidth=2;" vertex="1" parent="cF4Il0tcKfwgS1lK2epE-57">
          <mxGeometry x="270" y="1070" width="720" height="120" as="geometry" />
        </mxCell>
        <mxCell id="cF4Il0tcKfwgS1lK2epE-24" value="Security Group" style="rounded=1;arcSize=10;dashed=1;strokeColor=#ff0000;fillColor=none;gradientColor=none;dashPattern=8 4;strokeWidth=2;labelPosition=center;verticalLabelPosition=top;align=center;verticalAlign=bottom;" vertex="1" parent="cF4Il0tcKfwgS1lK2epE-57">
          <mxGeometry x="564" y="860" width="146" height="120" as="geometry" />
        </mxCell>
        <mxCell id="cF4Il0tcKfwgS1lK2epE-54" style="edgeStyle=orthogonalEdgeStyle;rounded=0;orthogonalLoop=1;jettySize=auto;html=1;" edge="1" parent="cF4Il0tcKfwgS1lK2epE-57" source="cF4Il0tcKfwgS1lK2epE-30" target="cF4Il0tcKfwgS1lK2epE-31">
          <mxGeometry relative="1" as="geometry">
            <Array as="points">
              <mxPoint x="160" y="1115" />
              <mxPoint x="160" y="1372" />
            </Array>
          </mxGeometry>
        </mxCell>
        <mxCell id="cF4Il0tcKfwgS1lK2epE-30" value="Auto Scaling group" style="points=[[0,0],[0.25,0],[0.5,0],[0.75,0],[1,0],[1,0.25],[1,0.5],[1,0.75],[1,1],[0.75,1],[0.5,1],[0.25,1],[0,1],[0,0.75],[0,0.5],[0,0.25]];outlineConnect=0;gradientColor=none;html=1;whiteSpace=wrap;fontSize=12;fontStyle=0;container=1;pointerEvents=0;collapsible=0;recursiveResize=0;shape=mxgraph.aws4.groupCenter;grIcon=mxgraph.aws4.group_auto_scaling_group;grStroke=1;strokeColor=#D86613;fillColor=none;verticalAlign=top;align=center;fontColor=#D86613;dashed=1;spacingTop=25;" vertex="1" parent="cF4Il0tcKfwgS1lK2epE-57">
          <mxGeometry x="190" y="1000" width="910" height="230" as="geometry" />
        </mxCell>
        <mxCell id="cF4Il0tcKfwgS1lK2epE-31" value="IAM Role" style="sketch=0;outlineConnect=0;fontColor=#232F3E;gradientColor=none;fillColor=#DD344C;strokeColor=none;dashed=0;verticalLabelPosition=bottom;verticalAlign=top;align=center;html=1;fontSize=12;fontStyle=0;aspect=fixed;pointerEvents=1;shape=mxgraph.aws4.role;" vertex="1" parent="cF4Il0tcKfwgS1lK2epE-57">
          <mxGeometry x="306" y="1350" width="78" height="44" as="geometry" />
        </mxCell>
        <mxCell id="cF4Il0tcKfwgS1lK2epE-32" value="S3 Bucket" style="sketch=0;outlineConnect=0;fontColor=#232F3E;gradientColor=none;fillColor=#7AA116;strokeColor=none;dashed=0;verticalLabelPosition=bottom;verticalAlign=top;align=center;html=1;fontSize=12;fontStyle=0;aspect=fixed;pointerEvents=1;shape=mxgraph.aws4.bucket;" vertex="1" parent="cF4Il0tcKfwgS1lK2epE-57">
          <mxGeometry x="597.5" y="1316" width="75" height="78" as="geometry" />
        </mxCell>
        <mxCell id="cF4Il0tcKfwgS1lK2epE-35" value="Workstation" style="sketch=0;aspect=fixed;pointerEvents=1;shadow=0;dashed=0;html=1;strokeColor=none;labelPosition=center;verticalLabelPosition=bottom;verticalAlign=top;align=center;fillColor=#00188D;shape=mxgraph.mscae.enterprise.workstation_client" vertex="1" parent="cF4Il0tcKfwgS1lK2epE-57">
          <mxGeometry x="340.5" y="54" width="50" height="50" as="geometry" />
        </mxCell>
        <mxCell id="cF4Il0tcKfwgS1lK2epE-36" style="edgeStyle=orthogonalEdgeStyle;rounded=0;orthogonalLoop=1;jettySize=auto;html=1;entryX=0;entryY=0.7;entryDx=0;entryDy=0;entryPerimeter=0;" edge="1" parent="cF4Il0tcKfwgS1lK2epE-57" source="cF4Il0tcKfwgS1lK2epE-35" target="cF4Il0tcKfwgS1lK2epE-1">
          <mxGeometry relative="1" as="geometry" />
        </mxCell>
        <mxCell id="cF4Il0tcKfwgS1lK2epE-37" style="edgeStyle=orthogonalEdgeStyle;rounded=0;orthogonalLoop=1;jettySize=auto;html=1;entryX=0.406;entryY=0.009;entryDx=0;entryDy=0;entryPerimeter=0;" edge="1" parent="cF4Il0tcKfwgS1lK2epE-57" source="cF4Il0tcKfwgS1lK2epE-1" target="cF4Il0tcKfwgS1lK2epE-2">
          <mxGeometry relative="1" as="geometry" />
        </mxCell>
        <mxCell id="cF4Il0tcKfwgS1lK2epE-42" style="edgeStyle=orthogonalEdgeStyle;rounded=0;orthogonalLoop=1;jettySize=auto;html=1;" edge="1" parent="cF4Il0tcKfwgS1lK2epE-57" source="cF4Il0tcKfwgS1lK2epE-3" target="cF4Il0tcKfwgS1lK2epE-14">
          <mxGeometry relative="1" as="geometry" />
        </mxCell>
        <mxCell id="cF4Il0tcKfwgS1lK2epE-45" style="edgeStyle=orthogonalEdgeStyle;rounded=0;orthogonalLoop=1;jettySize=auto;html=1;" edge="1" parent="cF4Il0tcKfwgS1lK2epE-57" source="cF4Il0tcKfwgS1lK2epE-3" target="cF4Il0tcKfwgS1lK2epE-13">
          <mxGeometry relative="1" as="geometry" />
        </mxCell>
        <mxCell id="cF4Il0tcKfwgS1lK2epE-46" style="edgeStyle=orthogonalEdgeStyle;rounded=0;orthogonalLoop=1;jettySize=auto;html=1;" edge="1" parent="cF4Il0tcKfwgS1lK2epE-57" source="cF4Il0tcKfwgS1lK2epE-17">
          <mxGeometry relative="1" as="geometry">
            <mxPoint x="350" y="1090" as="targetPoint" />
            <Array as="points">
              <mxPoint x="430" y="778" />
              <mxPoint x="430" y="943" />
              <mxPoint x="350" y="943" />
            </Array>
          </mxGeometry>
        </mxCell>
        <mxCell id="cF4Il0tcKfwgS1lK2epE-49" style="edgeStyle=orthogonalEdgeStyle;rounded=0;orthogonalLoop=1;jettySize=auto;html=1;" edge="1" parent="cF4Il0tcKfwgS1lK2epE-57" source="cF4Il0tcKfwgS1lK2epE-24">
          <mxGeometry relative="1" as="geometry">
            <mxPoint x="380" y="1090" as="targetPoint" />
            <Array as="points">
              <mxPoint x="530" y="920" />
              <mxPoint x="530" y="1025" />
              <mxPoint x="380" y="1025" />
            </Array>
          </mxGeometry>
        </mxCell>
        <mxCell id="cF4Il0tcKfwgS1lK2epE-50" style="edgeStyle=orthogonalEdgeStyle;rounded=0;orthogonalLoop=1;jettySize=auto;html=1;" edge="1" parent="cF4Il0tcKfwgS1lK2epE-57" source="cF4Il0tcKfwgS1lK2epE-24">
          <mxGeometry relative="1" as="geometry">
            <mxPoint x="910" y="1090" as="targetPoint" />
          </mxGeometry>
        </mxCell>
        <mxCell id="cF4Il0tcKfwgS1lK2epE-51" style="edgeStyle=orthogonalEdgeStyle;rounded=0;orthogonalLoop=1;jettySize=auto;html=1;entryX=0.958;entryY=0.167;entryDx=0;entryDy=0;entryPerimeter=0;" edge="1" parent="cF4Il0tcKfwgS1lK2epE-57" source="cF4Il0tcKfwgS1lK2epE-18" target="cF4Il0tcKfwgS1lK2epE-23">
          <mxGeometry relative="1" as="geometry">
            <Array as="points">
              <mxPoint x="930" y="778" />
              <mxPoint x="930" y="943" />
              <mxPoint x="960" y="943" />
            </Array>
          </mxGeometry>
        </mxCell>
        <mxCell id="cF4Il0tcKfwgS1lK2epE-52" style="edgeStyle=orthogonalEdgeStyle;rounded=0;orthogonalLoop=1;jettySize=auto;html=1;entryX=0.167;entryY=0.718;entryDx=0;entryDy=0;entryPerimeter=0;" edge="1" parent="cF4Il0tcKfwgS1lK2epE-57" source="cF4Il0tcKfwgS1lK2epE-31" target="cF4Il0tcKfwgS1lK2epE-32">
          <mxGeometry relative="1" as="geometry" />
        </mxCell>
      </root>
    </mxGraphModel>
  </diagram>
</mxfile>
